<mxfile host="app.diagrams.net" modified="2023-05-15T17:05:36.179Z" agent="Mozilla/5.0 (Windows NT 10.0; Win64; x64) AppleWebKit/537.36 (KHTML, like Gecko) Chrome/113.0.0.0 Safari/537.36" etag="zN3ohh2AymXckqxabnDa" version="21.1.4" type="github">
  <diagram name="Page-1" id="NQFakxoYkVoBB0L2_mfe">
    <mxGraphModel dx="880" dy="395" grid="1" gridSize="10" guides="1" tooltips="1" connect="1" arrows="1" fold="1" page="1" pageScale="1" pageWidth="850" pageHeight="1100" math="0" shadow="0">
      <root>
        <mxCell id="0" />
        <mxCell id="1" parent="0" />
        <mxCell id="Izm7tjpCLRkO4xK3mdIs-1" value="" style="rounded=1;whiteSpace=wrap;html=1;" vertex="1" parent="1">
          <mxGeometry x="330" y="20" width="120" height="60" as="geometry" />
        </mxCell>
        <mxCell id="Izm7tjpCLRkO4xK3mdIs-5" style="edgeStyle=orthogonalEdgeStyle;rounded=0;orthogonalLoop=1;jettySize=auto;html=1;entryX=0.5;entryY=0;entryDx=0;entryDy=0;" edge="1" parent="1" target="Izm7tjpCLRkO4xK3mdIs-3">
          <mxGeometry relative="1" as="geometry">
            <mxPoint x="390" y="80" as="sourcePoint" />
            <Array as="points">
              <mxPoint x="390" y="180" />
              <mxPoint x="270" y="180" />
            </Array>
          </mxGeometry>
        </mxCell>
        <mxCell id="Izm7tjpCLRkO4xK3mdIs-2" value="Checkout" style="text;html=1;strokeColor=none;fillColor=none;align=center;verticalAlign=middle;whiteSpace=wrap;rounded=0;" vertex="1" parent="1">
          <mxGeometry x="360" y="35" width="60" height="30" as="geometry" />
        </mxCell>
        <mxCell id="Izm7tjpCLRkO4xK3mdIs-16" style="edgeStyle=orthogonalEdgeStyle;rounded=0;orthogonalLoop=1;jettySize=auto;html=1;exitX=0.5;exitY=1;exitDx=0;exitDy=0;entryX=0.5;entryY=0;entryDx=0;entryDy=0;" edge="1" parent="1" source="Izm7tjpCLRkO4xK3mdIs-4" target="Izm7tjpCLRkO4xK3mdIs-14">
          <mxGeometry relative="1" as="geometry" />
        </mxCell>
        <mxCell id="Izm7tjpCLRkO4xK3mdIs-4" value="" style="rounded=1;whiteSpace=wrap;html=1;" vertex="1" parent="1">
          <mxGeometry x="450" y="230" width="120" height="60" as="geometry" />
        </mxCell>
        <mxCell id="Izm7tjpCLRkO4xK3mdIs-7" value="" style="endArrow=classic;html=1;rounded=0;entryX=0.5;entryY=0;entryDx=0;entryDy=0;" edge="1" parent="1" target="Izm7tjpCLRkO4xK3mdIs-4">
          <mxGeometry width="50" height="50" relative="1" as="geometry">
            <mxPoint x="390" y="180" as="sourcePoint" />
            <mxPoint x="450" y="180" as="targetPoint" />
            <Array as="points">
              <mxPoint x="510" y="180" />
            </Array>
          </mxGeometry>
        </mxCell>
        <mxCell id="Izm7tjpCLRkO4xK3mdIs-8" value="install prerequisites" style="text;html=1;strokeColor=none;fillColor=none;align=center;verticalAlign=middle;whiteSpace=wrap;rounded=0;rotation=90;" vertex="1" parent="1">
          <mxGeometry x="340" y="110" width="60" height="30" as="geometry" />
        </mxCell>
        <mxCell id="Izm7tjpCLRkO4xK3mdIs-10" value="python packages" style="text;html=1;strokeColor=none;fillColor=none;align=center;verticalAlign=middle;whiteSpace=wrap;rounded=0;" vertex="1" parent="1">
          <mxGeometry x="480" y="245" width="60" height="30" as="geometry" />
        </mxCell>
        <mxCell id="Izm7tjpCLRkO4xK3mdIs-11" value="" style="group" vertex="1" connectable="0" parent="1">
          <mxGeometry x="210" y="230" width="120" height="60" as="geometry" />
        </mxCell>
        <mxCell id="Izm7tjpCLRkO4xK3mdIs-17" style="edgeStyle=orthogonalEdgeStyle;rounded=0;orthogonalLoop=1;jettySize=auto;html=1;exitX=0.5;exitY=1;exitDx=0;exitDy=0;" edge="1" parent="Izm7tjpCLRkO4xK3mdIs-11" source="Izm7tjpCLRkO4xK3mdIs-3">
          <mxGeometry relative="1" as="geometry">
            <mxPoint x="180" y="100" as="targetPoint" />
          </mxGeometry>
        </mxCell>
        <mxCell id="Izm7tjpCLRkO4xK3mdIs-3" value="" style="rounded=1;whiteSpace=wrap;html=1;" vertex="1" parent="Izm7tjpCLRkO4xK3mdIs-11">
          <mxGeometry width="120" height="60" as="geometry" />
        </mxCell>
        <mxCell id="Izm7tjpCLRkO4xK3mdIs-9" value="python" style="text;html=1;strokeColor=none;fillColor=none;align=center;verticalAlign=middle;whiteSpace=wrap;rounded=0;" vertex="1" parent="Izm7tjpCLRkO4xK3mdIs-11">
          <mxGeometry x="30" y="15" width="60" height="30" as="geometry" />
        </mxCell>
        <mxCell id="Izm7tjpCLRkO4xK3mdIs-13" value="" style="group" vertex="1" connectable="0" parent="1">
          <mxGeometry x="330" y="330" width="120" height="60" as="geometry" />
        </mxCell>
        <mxCell id="Izm7tjpCLRkO4xK3mdIs-14" value="" style="rounded=1;whiteSpace=wrap;html=1;" vertex="1" parent="Izm7tjpCLRkO4xK3mdIs-13">
          <mxGeometry width="120" height="60" as="geometry" />
        </mxCell>
        <mxCell id="Izm7tjpCLRkO4xK3mdIs-15" value="configure AWS credentials" style="text;html=1;strokeColor=none;fillColor=none;align=center;verticalAlign=middle;whiteSpace=wrap;rounded=0;" vertex="1" parent="Izm7tjpCLRkO4xK3mdIs-13">
          <mxGeometry x="30" y="15" width="60" height="30" as="geometry" />
        </mxCell>
        <mxCell id="Izm7tjpCLRkO4xK3mdIs-18" value="" style="group" vertex="1" connectable="0" parent="1">
          <mxGeometry x="330" y="440" width="120" height="60" as="geometry" />
        </mxCell>
        <mxCell id="Izm7tjpCLRkO4xK3mdIs-19" value="" style="rounded=1;whiteSpace=wrap;html=1;" vertex="1" parent="Izm7tjpCLRkO4xK3mdIs-18">
          <mxGeometry width="120" height="60" as="geometry" />
        </mxCell>
        <mxCell id="Izm7tjpCLRkO4xK3mdIs-20" value="run flake8 linter" style="text;html=1;strokeColor=none;fillColor=none;align=center;verticalAlign=middle;whiteSpace=wrap;rounded=0;" vertex="1" parent="Izm7tjpCLRkO4xK3mdIs-18">
          <mxGeometry x="30" y="15" width="60" height="30" as="geometry" />
        </mxCell>
        <mxCell id="Izm7tjpCLRkO4xK3mdIs-22" value="" style="group" vertex="1" connectable="0" parent="1">
          <mxGeometry x="160" y="445" width="80" height="50" as="geometry" />
        </mxCell>
        <mxCell id="Izm7tjpCLRkO4xK3mdIs-23" value="" style="rounded=1;whiteSpace=wrap;html=1;" vertex="1" parent="Izm7tjpCLRkO4xK3mdIs-22">
          <mxGeometry width="80" height="50" as="geometry" />
        </mxCell>
        <mxCell id="Izm7tjpCLRkO4xK3mdIs-24" value="mount_test.py" style="text;html=1;strokeColor=none;fillColor=none;align=center;verticalAlign=middle;whiteSpace=wrap;rounded=0;" vertex="1" parent="Izm7tjpCLRkO4xK3mdIs-22">
          <mxGeometry x="20" y="12.5" width="40" height="25" as="geometry" />
        </mxCell>
        <mxCell id="Izm7tjpCLRkO4xK3mdIs-25" value="" style="group" vertex="1" connectable="0" parent="1">
          <mxGeometry x="160" y="380" width="80" height="50" as="geometry" />
        </mxCell>
        <mxCell id="Izm7tjpCLRkO4xK3mdIs-26" value="" style="rounded=1;whiteSpace=wrap;html=1;" vertex="1" parent="Izm7tjpCLRkO4xK3mdIs-25">
          <mxGeometry width="80" height="50" as="geometry" />
        </mxCell>
        <mxCell id="Izm7tjpCLRkO4xK3mdIs-27" value="app.py" style="text;html=1;strokeColor=none;fillColor=none;align=center;verticalAlign=middle;whiteSpace=wrap;rounded=0;" vertex="1" parent="Izm7tjpCLRkO4xK3mdIs-25">
          <mxGeometry x="20" y="12.5" width="40" height="25" as="geometry" />
        </mxCell>
        <mxCell id="Izm7tjpCLRkO4xK3mdIs-28" value="" style="group" vertex="1" connectable="0" parent="1">
          <mxGeometry x="160" y="510" width="80" height="50" as="geometry" />
        </mxCell>
        <mxCell id="Izm7tjpCLRkO4xK3mdIs-29" value="" style="rounded=1;whiteSpace=wrap;html=1;" vertex="1" parent="Izm7tjpCLRkO4xK3mdIs-28">
          <mxGeometry width="80" height="50" as="geometry" />
        </mxCell>
        <mxCell id="Izm7tjpCLRkO4xK3mdIs-30" value="test_app.py" style="text;html=1;strokeColor=none;fillColor=none;align=center;verticalAlign=middle;whiteSpace=wrap;rounded=0;" vertex="1" parent="Izm7tjpCLRkO4xK3mdIs-28">
          <mxGeometry x="20" y="12.5" width="40" height="25" as="geometry" />
        </mxCell>
        <mxCell id="Izm7tjpCLRkO4xK3mdIs-31" style="edgeStyle=orthogonalEdgeStyle;rounded=0;orthogonalLoop=1;jettySize=auto;html=1;exitX=0;exitY=0.5;exitDx=0;exitDy=0;entryX=1;entryY=0.5;entryDx=0;entryDy=0;" edge="1" parent="1" source="Izm7tjpCLRkO4xK3mdIs-19" target="Izm7tjpCLRkO4xK3mdIs-23">
          <mxGeometry relative="1" as="geometry" />
        </mxCell>
        <mxCell id="Izm7tjpCLRkO4xK3mdIs-32" value="" style="endArrow=classic;html=1;rounded=0;entryX=1;entryY=0.5;entryDx=0;entryDy=0;" edge="1" parent="1" target="Izm7tjpCLRkO4xK3mdIs-26">
          <mxGeometry width="50" height="50" relative="1" as="geometry">
            <mxPoint x="290" y="470" as="sourcePoint" />
            <mxPoint x="450" y="480" as="targetPoint" />
            <Array as="points">
              <mxPoint x="290" y="405" />
            </Array>
          </mxGeometry>
        </mxCell>
        <mxCell id="Izm7tjpCLRkO4xK3mdIs-33" value="" style="endArrow=classic;html=1;rounded=0;entryX=1;entryY=0.5;entryDx=0;entryDy=0;" edge="1" parent="1" target="Izm7tjpCLRkO4xK3mdIs-29">
          <mxGeometry width="50" height="50" relative="1" as="geometry">
            <mxPoint x="290" y="470" as="sourcePoint" />
            <mxPoint x="450" y="480" as="targetPoint" />
            <Array as="points">
              <mxPoint x="290" y="535" />
            </Array>
          </mxGeometry>
        </mxCell>
        <mxCell id="Izm7tjpCLRkO4xK3mdIs-34" style="edgeStyle=orthogonalEdgeStyle;rounded=0;orthogonalLoop=1;jettySize=auto;html=1;entryX=0.5;entryY=0;entryDx=0;entryDy=0;" edge="1" parent="1" target="Izm7tjpCLRkO4xK3mdIs-19">
          <mxGeometry relative="1" as="geometry">
            <mxPoint x="390" y="390" as="sourcePoint" />
          </mxGeometry>
        </mxCell>
        <mxCell id="Izm7tjpCLRkO4xK3mdIs-57" style="edgeStyle=orthogonalEdgeStyle;rounded=0;orthogonalLoop=1;jettySize=auto;html=1;exitX=0.5;exitY=1;exitDx=0;exitDy=0;entryX=0.5;entryY=0;entryDx=0;entryDy=0;" edge="1" parent="1" source="Izm7tjpCLRkO4xK3mdIs-35" target="Izm7tjpCLRkO4xK3mdIs-55">
          <mxGeometry relative="1" as="geometry" />
        </mxCell>
        <mxCell id="Izm7tjpCLRkO4xK3mdIs-35" value="" style="rounded=1;whiteSpace=wrap;html=1;" vertex="1" parent="1">
          <mxGeometry x="330" y="560" width="120" height="60" as="geometry" />
        </mxCell>
        <mxCell id="Izm7tjpCLRkO4xK3mdIs-36" style="edgeStyle=orthogonalEdgeStyle;rounded=0;orthogonalLoop=1;jettySize=auto;html=1;exitX=0.5;exitY=1;exitDx=0;exitDy=0;entryX=0.5;entryY=0;entryDx=0;entryDy=0;" edge="1" parent="1" source="Izm7tjpCLRkO4xK3mdIs-19" target="Izm7tjpCLRkO4xK3mdIs-35">
          <mxGeometry relative="1" as="geometry" />
        </mxCell>
        <mxCell id="Izm7tjpCLRkO4xK3mdIs-37" value="run pytest" style="text;html=1;strokeColor=none;fillColor=none;align=center;verticalAlign=middle;whiteSpace=wrap;rounded=0;" vertex="1" parent="1">
          <mxGeometry x="360" y="575" width="60" height="30" as="geometry" />
        </mxCell>
        <mxCell id="Izm7tjpCLRkO4xK3mdIs-52" style="edgeStyle=orthogonalEdgeStyle;rounded=0;orthogonalLoop=1;jettySize=auto;html=1;exitX=1;exitY=0.5;exitDx=0;exitDy=0;entryX=0;entryY=0.5;entryDx=0;entryDy=0;" edge="1" parent="1" source="Izm7tjpCLRkO4xK3mdIs-40" target="Izm7tjpCLRkO4xK3mdIs-50">
          <mxGeometry relative="1" as="geometry" />
        </mxCell>
        <mxCell id="Izm7tjpCLRkO4xK3mdIs-40" value="" style="rounded=1;whiteSpace=wrap;html=1;" vertex="1" parent="1">
          <mxGeometry x="520" y="525" width="80" height="50" as="geometry" />
        </mxCell>
        <mxCell id="Izm7tjpCLRkO4xK3mdIs-41" value="mount_test.py" style="text;html=1;strokeColor=none;fillColor=none;align=center;verticalAlign=middle;whiteSpace=wrap;rounded=0;" vertex="1" parent="1">
          <mxGeometry x="540" y="537.5" width="40" height="25" as="geometry" />
        </mxCell>
        <mxCell id="Izm7tjpCLRkO4xK3mdIs-49" style="edgeStyle=orthogonalEdgeStyle;rounded=0;orthogonalLoop=1;jettySize=auto;html=1;exitX=1;exitY=0.5;exitDx=0;exitDy=0;entryX=0;entryY=0.5;entryDx=0;entryDy=0;" edge="1" parent="1" source="Izm7tjpCLRkO4xK3mdIs-42" target="Izm7tjpCLRkO4xK3mdIs-47">
          <mxGeometry relative="1" as="geometry" />
        </mxCell>
        <mxCell id="Izm7tjpCLRkO4xK3mdIs-42" value="" style="rounded=1;whiteSpace=wrap;html=1;" vertex="1" parent="1">
          <mxGeometry x="520" y="605" width="80" height="50" as="geometry" />
        </mxCell>
        <mxCell id="Izm7tjpCLRkO4xK3mdIs-43" value="test_app.py" style="text;html=1;strokeColor=none;fillColor=none;align=center;verticalAlign=middle;whiteSpace=wrap;rounded=0;" vertex="1" parent="1">
          <mxGeometry x="540" y="617.5" width="40" height="25" as="geometry" />
        </mxCell>
        <mxCell id="Izm7tjpCLRkO4xK3mdIs-44" value="" style="endArrow=classic;html=1;rounded=0;exitX=1;exitY=0.5;exitDx=0;exitDy=0;" edge="1" parent="1" source="Izm7tjpCLRkO4xK3mdIs-35">
          <mxGeometry width="50" height="50" relative="1" as="geometry">
            <mxPoint x="400" y="530" as="sourcePoint" />
            <mxPoint x="450" y="590" as="targetPoint" />
            <Array as="points" />
          </mxGeometry>
        </mxCell>
        <mxCell id="Izm7tjpCLRkO4xK3mdIs-45" value="" style="endArrow=classic;html=1;rounded=0;exitX=1;exitY=0.5;exitDx=0;exitDy=0;entryX=0;entryY=0.5;entryDx=0;entryDy=0;" edge="1" parent="1" source="Izm7tjpCLRkO4xK3mdIs-35" target="Izm7tjpCLRkO4xK3mdIs-40">
          <mxGeometry width="50" height="50" relative="1" as="geometry">
            <mxPoint x="400" y="530" as="sourcePoint" />
            <mxPoint x="450" y="480" as="targetPoint" />
            <Array as="points">
              <mxPoint x="490" y="590" />
              <mxPoint x="490" y="550" />
            </Array>
          </mxGeometry>
        </mxCell>
        <mxCell id="Izm7tjpCLRkO4xK3mdIs-46" value="" style="endArrow=classic;html=1;rounded=0;entryX=0;entryY=0.5;entryDx=0;entryDy=0;" edge="1" parent="1" target="Izm7tjpCLRkO4xK3mdIs-42">
          <mxGeometry width="50" height="50" relative="1" as="geometry">
            <mxPoint x="490" y="590" as="sourcePoint" />
            <mxPoint x="450" y="480" as="targetPoint" />
            <Array as="points">
              <mxPoint x="490" y="630" />
            </Array>
          </mxGeometry>
        </mxCell>
        <mxCell id="Izm7tjpCLRkO4xK3mdIs-47" value="" style="rounded=1;whiteSpace=wrap;html=1;" vertex="1" parent="1">
          <mxGeometry x="640" y="605" width="80" height="50" as="geometry" />
        </mxCell>
        <mxCell id="Izm7tjpCLRkO4xK3mdIs-48" value="app.py" style="text;html=1;strokeColor=none;fillColor=none;align=center;verticalAlign=middle;whiteSpace=wrap;rounded=0;" vertex="1" parent="1">
          <mxGeometry x="660" y="617.5" width="40" height="25" as="geometry" />
        </mxCell>
        <mxCell id="Izm7tjpCLRkO4xK3mdIs-50" value="" style="rounded=1;whiteSpace=wrap;html=1;" vertex="1" parent="1">
          <mxGeometry x="640" y="525" width="80" height="50" as="geometry" />
        </mxCell>
        <mxCell id="Izm7tjpCLRkO4xK3mdIs-51" value="mount.sh" style="text;html=1;strokeColor=none;fillColor=none;align=center;verticalAlign=middle;whiteSpace=wrap;rounded=0;" vertex="1" parent="1">
          <mxGeometry x="660" y="537.5" width="40" height="25" as="geometry" />
        </mxCell>
        <mxCell id="Izm7tjpCLRkO4xK3mdIs-55" value="" style="rounded=1;whiteSpace=wrap;html=1;" vertex="1" parent="1">
          <mxGeometry x="330" y="680" width="120" height="60" as="geometry" />
        </mxCell>
        <mxCell id="Izm7tjpCLRkO4xK3mdIs-56" value="semantic versioning" style="text;html=1;strokeColor=none;fillColor=none;align=center;verticalAlign=middle;whiteSpace=wrap;rounded=0;" vertex="1" parent="1">
          <mxGeometry x="360" y="695" width="60" height="30" as="geometry" />
        </mxCell>
      </root>
    </mxGraphModel>
  </diagram>
</mxfile>
